<?xml version="1.0" encoding="UTF-8"?>
<svg id="Capa_2" data-name="Capa 2" xmlns="http://www.w3.org/2000/svg" viewBox="0 0 444.13 122.21">
  <defs>
    <style>
      .cls-1 {
        fill: #eb660c;
      }

      .cls-1, .cls-2, .cls-3 {
        stroke-width: 0px;
      }

      .cls-2 {
        fill: #004562;
      }

      .cls-3 {
        fill: #fff;
      }
    </style>
  </defs>
  <g id="Capa_1-2" data-name="Capa 1">
    <g>
      <g>
        <rect class="cls-3" x="1.5" y="1.5" width="441.13" height="119.21" rx="7.23" ry="7.23"/>
        <path class="cls-1" d="M435.4,3c3.16,0,5.73,2.56,5.73,5.73v104.75c0,3.16-2.56,5.73-5.73,5.73H8.73c-3.16,0-5.73-2.56-5.73-5.73V8.73c0-3.16,2.56-5.73,5.73-5.73h426.67M435.4,0H8.73C3.92,0,0,3.92,0,8.73v104.75c0,4.81,3.92,8.73,8.73,8.73h426.67c4.81,0,8.73-3.92,8.73-8.73V8.73c0-4.81-3.92-8.73-8.73-8.73h0Z"/>
      </g>
      <g>
        <g>
          <polygon class="cls-1" points="122.61 91.4 75.97 91.4 40.99 30.81 64.25 30.81 79.13 56.59 87.58 71.23 110.96 71.23 115.94 79.85 122.61 91.4"/>
          <polygon class="cls-2" points="169.39 91.4 146.28 91.4 139.46 79.6 127.77 59.36 125.08 54.69 122.93 50.98 99.26 50.98 87.62 30.81 134.41 30.81 139.33 39.34 151.02 59.59 162.86 80.09 169.39 91.4"/>
        </g>
        <g>
          <g>
            <path class="cls-2" d="M191.04,84.12c1.08,0,1.7.81,1.9,2.47v.1s2.04-.28,2.04-.28v-.1c-.4-2.61-1.72-3.93-3.94-3.93-1.43,0-2.55.52-3.31,1.56-.76,1.02-1.14,2.51-1.14,4.42,0,1.77.36,3.21,1.08,4.27.72,1.08,1.83,1.62,3.3,1.62,2.26,0,3.6-1.29,3.98-3.84v-.1s-1.99-.27-1.99-.27l-.02.1c-.12.77-.33,1.37-.62,1.78-.28.4-.7.59-1.28.59-1.44,0-2.17-1.36-2.17-4.04,0-2.89.73-4.35,2.17-4.35Z"/>
            <path class="cls-2" d="M200.35,82.38c-1.42,0-2.51.51-3.26,1.52-.74,1-1.11,2.49-1.11,4.41s.38,3.43,1.12,4.43c.75,1,1.85,1.51,3.26,1.51s2.49-.51,3.23-1.52c.73-1,1.11-2.49,1.11-4.43s-.38-3.43-1.11-4.42c-.75-1-1.83-1.51-3.23-1.51ZM198.72,85.2c.31-.74.84-1.1,1.62-1.1s1.31.36,1.62,1.09c.32.75.48,1.8.48,3.12s-.16,2.4-.49,3.14c-.32.72-.84,1.08-1.59,1.08-.81,0-1.35-.36-1.65-1.11-.31-.77-.47-1.81-.47-3.1s.16-2.36.48-3.12Z"/>
            <polygon class="cls-2" points="212.53 90.37 208.82 82.64 208.79 82.59 206.32 82.59 206.32 94.05 208.16 94.05 208.16 85.37 212.35 94 212.37 94.05 214.37 94.05 214.37 82.59 212.53 82.59 212.53 90.37"/>
            <path class="cls-2" d="M222.42,88.06c-.44-.27-1.07-.55-1.88-.84-.93-.34-1.56-.63-1.86-.87-.29-.23-.43-.53-.43-.91,0-.35.13-.66.39-.93.26-.27.64-.4,1.12-.4.53,0,.95.14,1.25.4.31.27.56.7.75,1.28l.03.09,1.86-.61-.03-.09c-.54-1.85-1.82-2.79-3.79-2.79-1.11,0-2.01.32-2.69.94-.68.63-1.02,1.41-1.02,2.33,0,.61.15,1.15.46,1.63.3.47.68.84,1.11,1.08.42.24,1.12.53,2.07.87.88.32,1.43.62,1.64.88.21.27.32.56.32.87,0,.43-.15.79-.46,1.08-.31.29-.77.44-1.37.44-1.25,0-2-.66-2.3-2l-.02-.1-1.95.52.02.1c.53,2.14,1.93,3.23,4.16,3.23,1.29,0,2.31-.34,3.03-1.03.72-.68,1.09-1.52,1.09-2.49,0-.6-.14-1.13-.42-1.59-.28-.45-.64-.82-1.09-1.09Z"/>
            <polygon class="cls-2" points="224.28 84.37 226.91 84.37 226.91 94.05 229.07 94.05 229.07 84.37 231.72 84.37 231.72 82.59 224.28 82.59 224.28 84.37"/>
            <path class="cls-2" d="M239.92,85.91c0-1.06-.32-1.89-.95-2.47-.63-.57-1.61-.86-2.92-.86h-3.67v11.46h2.16v-4.7h1.68l1.84,4.7h2.35l-2.27-5.14c1.18-.6,1.79-1.61,1.79-3ZM234.54,84.23h1.42c1.24,0,1.84.55,1.84,1.67,0,.54-.15.98-.45,1.31-.29.33-.77.5-1.41.5h-1.4v-3.47Z"/>
            <path class="cls-2" d="M247.4,89.64c0,.95-.06,1.6-.17,1.91-.11.3-.29.54-.55.71-.26.17-.63.25-1.11.25-.5,0-.91-.1-1.2-.31-.29-.2-.47-.48-.55-.82-.08-.36-.13-.94-.13-1.71v-7.09h-2.12v7.09c0,1.41.15,2.41.46,2.97.31.57.76.98,1.36,1.23.58.25,1.28.38,2.08.38,1.02,0,1.85-.2,2.47-.6.62-.4,1.02-.92,1.19-1.54.17-.6.25-1.46.25-2.57v-6.97h-1.96v7.06Z"/>
            <path class="cls-2" d="M255.42,84.12c1.08,0,1.7.81,1.9,2.47v.1s2.04-.28,2.04-.28v-.1c-.4-2.61-1.72-3.93-3.94-3.93-1.43,0-2.55.52-3.31,1.56-.76,1.02-1.14,2.51-1.14,4.42,0,1.77.36,3.21,1.08,4.27.72,1.08,1.83,1.62,3.3,1.62,2.26,0,3.6-1.29,3.98-3.84v-.1s-1.99-.27-1.99-.27l-.02.1c-.12.77-.33,1.37-.62,1.78-.28.4-.7.59-1.28.59-1.44,0-2.17-1.36-2.17-4.04,0-2.89.73-4.35,2.17-4.35Z"/>
            <polygon class="cls-2" points="259.32 84.37 261.95 84.37 261.95 94.05 264.11 94.05 264.11 84.37 266.76 84.37 266.76 82.59 259.32 82.59 259.32 84.37"/>
            <path class="cls-2" d="M271.45,82.38c-1.42,0-2.51.51-3.26,1.52-.74,1-1.11,2.49-1.11,4.41s.38,3.43,1.12,4.43c.75,1,1.85,1.51,3.26,1.51s2.49-.51,3.23-1.52c.73-1,1.11-2.49,1.11-4.43s-.38-3.43-1.11-4.42c-.75-1-1.83-1.51-3.23-1.51ZM269.81,85.2c.31-.74.84-1.1,1.62-1.1s1.31.36,1.62,1.09c.32.75.48,1.8.48,3.12s-.16,2.4-.49,3.14c-.32.72-.84,1.08-1.59,1.08-.81,0-1.35-.36-1.65-1.11-.31-.77-.47-1.81-.47-3.1s.16-2.36.48-3.12Z"/>
            <path class="cls-2" d="M285.02,85.91c0-1.06-.32-1.89-.95-2.47-.63-.57-1.61-.86-2.92-.86h-3.67v11.46h2.16v-4.7h1.68l1.84,4.7h2.35l-2.27-5.14c1.18-.6,1.79-1.61,1.79-3ZM279.63,84.23h1.42c1.24,0,1.84.55,1.84,1.67,0,.54-.15.98-.45,1.31-.29.33-.77.5-1.41.5h-1.4v-3.47Z"/>
            <path class="cls-2" d="M291.46,82.59h-2.35l-3.45,11.34-.04.13h2.08l.74-2.82h3.32l.74,2.82h2.2l-3.22-11.39-.02-.07ZM291.32,89.56h-2.45l1.22-4.66,1.23,4.66Z"/>
            <polygon class="cls-2" points="301.13 89 304.92 89 304.92 87.3 301.13 87.3 301.13 84.28 305.96 84.28 305.96 82.59 298.97 82.59 298.97 94.05 306.04 94.05 306.04 92.33 301.13 92.33 301.13 89"/>
            <rect class="cls-2" x="310.47" y="82.59" width="2.16" height="11.46"/>
            <polygon class="cls-2" points="320.86 90.37 317.15 82.64 317.12 82.59 314.65 82.59 314.65 94.05 316.49 94.05 316.49 85.37 320.68 94 320.7 94.05 322.7 94.05 322.7 82.59 320.86 82.59 320.86 90.37"/>
            <polygon class="cls-2" points="330.04 90.45 327.77 82.66 327.75 82.59 324.66 82.59 324.66 94.05 326.5 94.05 326.5 85.04 329.07 93.98 329.09 94.05 330.67 94.05 333.31 85.03 333.31 94.05 335.35 94.05 335.35 82.59 332.39 82.59 330.04 90.45"/>
            <path class="cls-2" d="M341.41,82.38c-1.42,0-2.51.51-3.26,1.52-.74,1-1.11,2.49-1.11,4.41s.38,3.43,1.12,4.43c.75,1,1.85,1.51,3.26,1.51s2.49-.51,3.23-1.52c.73-1,1.11-2.49,1.11-4.43s-.38-3.43-1.11-4.42c-.75-1-1.83-1.51-3.23-1.51ZM339.78,85.2c.31-.74.84-1.1,1.62-1.1s1.31.36,1.62,1.09c.32.75.48,1.8.48,3.12s-.16,2.4-.49,3.14c-.32.72-.84,1.08-1.59,1.08-.81,0-1.35-.36-1.65-1.11-.31-.77-.47-1.81-.47-3.1s.16-2.36.48-3.12Z"/>
            <path class="cls-2" d="M353.39,88.01c1.04-.44,1.57-1.27,1.57-2.46,0-.7-.17-1.3-.5-1.79-.34-.49-.75-.82-1.24-.96-.48-.14-1.18-.21-2.09-.21h-3.69v11.46h3.74c1.6,0,2.71-.32,3.28-.96.57-.64.86-1.39.86-2.24,0-1.41-.65-2.36-1.93-2.84ZM349.56,88.9h1.32c.91,0,1.51.18,1.8.53.29.35.44.76.44,1.21,0,1.16-.68,1.72-2.07,1.72h-1.48v-3.46ZM352.35,86.83c-.26.28-.81.43-1.65.43h-1.14v-3.03h1.33c.64,0,1.12.12,1.42.35.29.22.44.61.44,1.14,0,.46-.13.83-.39,1.12Z"/>
            <rect class="cls-2" x="357.13" y="82.59" width="2.16" height="11.46"/>
            <polygon class="cls-2" points="363.53 82.59 361.37 82.59 361.37 94.05 367.73 94.05 367.73 92.28 363.53 92.28 363.53 82.59"/>
            <rect class="cls-2" x="368.64" y="82.59" width="2.16" height="11.46"/>
            <path class="cls-2" d="M377.48,82.59h-2.35l-3.45,11.34-.04.13h2.08l.74-2.82h3.32l.74,2.82h2.2l-3.22-11.39-.02-.07ZM377.34,89.56h-2.45l1.22-4.66,1.23,4.66Z"/>
            <path class="cls-2" d="M389.22,85.91c0-1.06-.32-1.89-.95-2.47-.63-.57-1.61-.86-2.92-.86h-3.67v11.46h2.16v-4.7h1.68l1.84,4.7h2.35l-2.27-5.14c1.18-.6,1.79-1.61,1.79-3ZM383.83,84.23h1.42c1.24,0,1.84.55,1.84,1.67,0,.54-.15.98-.45,1.31-.29.33-.77.5-1.41.5h-1.4v-3.47Z"/>
            <rect class="cls-2" x="391.06" y="82.59" width="2.16" height="11.46"/>
            <path class="cls-2" d="M399.92,82.66l-.02-.07h-2.35l-3.45,11.34-.04.13h2.08l.74-2.82h3.32l.74,2.82h2.2l-3.22-11.39ZM399.76,89.56h-2.45l1.22-4.66,1.23,4.66Z"/>
          </g>
          <g>
            <polygon class="cls-2" points="214.96 62.97 214.96 70.99 185.94 70.99 185.94 27.95 193.96 27.95 193.96 62.97 214.96 62.97"/>
            <rect class="cls-2" x="393.97" y="27.95" width="8.02" height="43.04"/>
            <path class="cls-2" d="M383.91,48.93v22.06h-8v-23.73c-1.21-6.06-6.56-10.63-12.98-10.63s-11.77,4.57-12.98,10.63v23.73h-8v-22.06c0-6.69,3.13-12.65,8-16.48,3.57-2.82,8.07-4.5,12.98-4.5s9.41,1.68,12.98,4.51c4.87,3.83,8,9.78,8,16.47Z"/>
            <path class="cls-2" d="M275.82,28.49h19.32v8h-20.79c-5.31,1.21-9.31,6.56-9.31,12.98s4,11.77,9.31,12.98h20.79v8h-19.32c-5.86,0-11.08-3.13-14.44-8-2.47-3.57-3.94-8.07-3.94-12.98s1.47-9.41,3.95-12.98c3.35-4.87,8.57-8,14.43-8Z"/>
            <path class="cls-2" d="M225.49,45.46h23.39v8.02h-23.39c1.27,4.54,4.62,8.02,8.77,8.97h20.79v8h-19.32c-5.86,0-11.08-3.13-14.44-8-2.47-3.57-3.94-8.07-3.94-12.98s1.47-9.41,3.95-12.98c3.35-4.87,8.57-8,14.43-8h19.32v8h-20.79c-4.15.95-7.5,4.43-8.77,8.97Z"/>
            <path class="cls-2" d="M307.84,45.46h23.39v8.02h-23.39c1.27,4.54,4.62,8.02,8.77,8.97h20.79v8h-19.32c-5.86,0-11.08-3.13-14.44-8-2.47-3.57-3.94-8.07-3.94-12.98s1.47-9.41,3.95-12.98c3.35-4.87,8.57-8,14.43-8h19.32v8h-20.79c-4.15.95-7.5,4.43-8.77,8.97Z"/>
          </g>
        </g>
      </g>
    </g>
  </g>
</svg>